<?xml version="1.0" encoding="utf-8"?>
<!-- Generator: Adobe Illustrator 17.0.0, SVG Export Plug-In . SVG Version: 6.00 Build 0)  -->
<!DOCTYPE svg PUBLIC "-//W3C//DTD SVG 1.1//EN" "http://www.w3.org/Graphics/SVG/1.1/DTD/svg11.dtd">
<svg version="1.1" id="Layer_1" xmlns="http://www.w3.org/2000/svg" xmlns:xlink="http://www.w3.org/1999/xlink" x="0px" y="0px"
	 width="174px" height="50px" viewBox="0 0 174 50" enable-background="new 0 0 174 50" xml:space="preserve">
<text transform="matrix(1 0 0 1 59.317 40.1172)" display="none" enable-background="new    " font-family="'Medel-Regular'" font-size="45" letter-spacing="-1">Stellar</text>
<g>
	<path id="logo" fill="#F26724" d="M24.67,5.8c10.587,0,19.2,8.613,19.2,19.2s-8.613,19.2-19.2,19.2S5.47,35.587,5.47,25
		S14.083,5.8,24.67,5.8z M24.67,1c-13.256,0-24,10.745-24,24c0,13.254,10.744,24,24,24s24-10.746,24-24
		C48.67,11.745,37.926,1,24.67,1z M24.67,15.4c5.295,0,9.6,4.307,9.6,9.6c0,5.295-4.305,9.6-9.6,9.6s-9.6-4.305-9.6-9.6
		C15.07,19.707,19.375,15.4,24.67,15.4z M24.67,10.6c-7.955,0-14.4,6.446-14.4,14.4c0,7.955,6.445,14.4,14.4,14.4
		s14.4-6.445,14.4-14.4C39.07,17.046,32.625,10.6,24.67,10.6z M24.67,20.2c-2.653,0-4.8,2.149-4.8,4.8s2.147,4.8,4.8,4.8
		s4.8-2.149,4.8-4.8S27.323,20.2,24.67,20.2z"/>
</g>
</svg>
